<svg
                                width="24"
                                height="24"
                                viewBox="0 0 24 24"
                                fill="none"
                                xmlns="http://www.w3.org/2000/svg"
                                >
                                    <mask
                                        id="mask0_138_427"
                                        style="mask-type: alpha"
                                        maskUnits="userSpaceOnUse"
                                        x="0"
                                        y="0"
                                        width="24"
                                        height="24"
                                    >
                                        <rect
                                            width="24"
                                            height="24"
                                            fill="#D9D9D9"
                                        />
                                    </mask>
                                    <g mask="url(#mask0_138_427)">
                                        <path
                                            d="M15 15H19V13H15V15ZM15 11H19V9H15V11ZM5 17C4.45 17 3.97917 16.8042 3.5875 16.4125C3.19583 16.0208 3 15.55 3 15V9C3 8.45 3.19583 7.97917 3.5875 7.5875C3.97917 7.19583 4.45 7 5 7H9C9.55 7 10.0208 7.19583 10.4125 7.5875C10.8042 7.97917 11 8.45 11 9H5V15H9V13H7V11H11V15C11 15.55 10.8042 16.0208 10.4125 16.4125C10.0208 16.8042 9.55 17 9 17H5ZM13 17V7H19C19.55 7 20.0208 7.19583 20.4125 7.5875C20.8042 7.97917 21 8.45 21 9V10.5C21 10.9167 20.8542 11.2708 20.5625 11.5625C20.2708 11.8542 19.9167 12 19.5 12C19.9167 12 20.2708 12.1458 20.5625 12.4375C20.8542 12.7292 21 13.0833 21 13.5V15C21 15.55 20.8042 16.0208 20.4125 16.4125C20.0208 16.8042 19.55 17 19 17H13Z"
                                            fill="#2A2F33"
                                        />
                                    </g>
                                </svg>