<svg
                    width="28"
                    height="32"
                    fill="none"
                    xmlns="http://www.w3.org/2000/svg"
                >
                    <path
                        d="M13.694 15.653.8 8.233v15.583l12.877 7.383 12.813-7.43V8.232l-12.797 7.421Z"
                        fill="#29A8F0"
                    />
                    <path
                        d="M13.678.8 26.49 8.233l-12.813 7.432L.8 8.232 13.678.801Z"
                        fill="#57BCF5"
                    />
                    <path
                        d="m13.678 5.548 8.776 5.023v10.795l-8.776-4.315V5.548Z"
                        fill="url(#a)"
                    />
                    <path
                        d="m13.678 5.542-8.81 5.037v10.818l8.81-4.346V5.54Z"
                        fill="url(#b)"
                    />
                    <path
                        d="m4.869 21.397 8.809-4.34 8.776 4.308-8.776 5.093-8.81-5.06Z"
                        fill="#078DD9"
                    />
                    <g clip-path="url(#c)">
                        <path
                            d="M7.632 19.622c-.429 0-.817-.076-1.163-.227a2.21 2.21 0 0 1-.85-.654 2.161 2.161 0 0 1-.418-1.018l1.143-.17c.08.334.247.591.5.772.252.18.539.27.86.27.18 0 .355-.028.524-.084.17-.057.308-.14.415-.25a.555.555 0 0 0 .137-.578.43.43 0 0 0-.085-.158.63.63 0 0 0-.173-.137 1.31 1.31 0 0 0-.278-.118l-1.505-.444a4.401 4.401 0 0 1-.395-.137 1.736 1.736 0 0 1-.43-.255 1.327 1.327 0 0 1-.35-.436c-.092-.183-.138-.413-.138-.69 0-.391.098-.716.294-.974.196-.259.458-.451.785-.578.328-.127.69-.188 1.087-.186.4.006.757.074 1.071.206.314.132.577.325.79.578.211.25.364.557.458.921l-1.184.202A1.052 1.052 0 0 0 8.49 15a1.136 1.136 0 0 0-.415-.295 1.374 1.374 0 0 0-.986-.036.917.917 0 0 0-.37.226.5.5 0 0 0-.141.356c0 .126.039.23.116.31a.881.881 0 0 0 .294.19c.118.05.24.09.363.122l1.006.275c.15.04.317.094.5.161.182.065.356.156.523.275.169.116.307.27.414.46.11.191.165.434.165.727 0 .313-.065.586-.197.82a1.71 1.71 0 0 1-.523.578c-.22.151-.47.264-.75.34a3.244 3.244 0 0 1-.857.113Zm3.212-.122v-5.817h.982l1.917 3.862 1.916-3.862h.982V19.5H15.62v-3.474L13.936 19.5h-.386l-1.683-3.474V19.5h-1.023Zm6.928 0v-5.817h2.447c.057 0 .132.003.226.008.096.003.182.011.257.025.346.054.63.168.85.343.223.175.386.396.49.663.106.264.158.558.158.884 0 .326-.054.622-.161.889a1.55 1.55 0 0 1-.491.658c-.22.175-.502.29-.846.344a4.315 4.315 0 0 1-.483.032h-1.353V19.5h-1.095Zm1.095-2.997h1.304c.056 0 .118-.003.185-.008a.938.938 0 0 0 .185-.032.667.667 0 0 0 .343-.202.807.807 0 0 0 .165-.32 1.28 1.28 0 0 0 .048-.335c0-.105-.016-.215-.049-.331a.772.772 0 0 0-.164-.32.654.654 0 0 0-.343-.205.953.953 0 0 0-.185-.033 2.321 2.321 0 0 0-.185-.008h-1.305v1.794Z"
                            fill="#fff"
                        />
                    </g>
                    <path
                        d="m.8 15.92 4.069 2.322L.8 20.565V15.92Z"
                        fill="#22A5EF"
                    />
                    <path
                        d="m.8 11.275 4.069 2.323L.8 15.92v-4.645Z"
                        fill="#29ABF4"
                    />
                    <path
                        d="m26.49 16.112-4.035 2.322 4.036 2.323v-4.645Z"
                        fill="#22A5EF"
                    />
                    <path
                        d="m4.869 21.397 4.036 2.339-4.036 2.402v-4.74Z"
                        fill="#29ABF4"
                    />
                    <path
                        d="m4.869 21.397 4.036 2.339-4.036 2.402v-4.74ZM22.454 21.365l-4.036 2.339 4.036 2.402v-4.74Z"
                        fill="#29ABF4"
                    />
                    <path
                        d="m22.454 21.365-4.036 2.339 4.036 2.402v-4.74ZM26.49 11.467l-4.035 2.323 4.036 2.322v-4.644Z"
                        fill="#29ABF4"
                    />
                    <path
                        fill-rule="evenodd"
                        clip-rule="evenodd"
                        d="M13.678.006V0L.8 7.431 0 7.891v16.267l.8.459L13.679 32v-.006l12.813-7.432v.007l.8-.46V7.897l-.8-.459L13.678.008ZM26.49 8.232 13.678.801.8 8.232v15.584l12.877 7.383 12.813-7.431V8.232Z"
                        fill="#000"
                    />
                    <defs>
                        <linearGradient
                            id="a"
                            x1="22.45"
                            y1="10.255"
                            x2="17.978"
                            y2="19.024"
                            gradientUnits="userSpaceOnUse"
                        >
                            <stop stop-color="#126C9E" />
                            <stop offset="1" stop-color="#078DD9" />
                        </linearGradient>
                        <linearGradient
                            id="b"
                            x1="4.868"
                            y1="10.255"
                            x2="9.34"
                            y2="19.024"
                            gradientUnits="userSpaceOnUse"
                        >
                            <stop stop-color="#126C9E" />
                            <stop offset="1" stop-color="#078DD9" />
                        </linearGradient>
                        <clipPath id="c">
                            <path
                                fill="#fff"
                                transform="translate(4.805 13.037)"
                                d="M0 0h17.714v7.271H0z"
                            />
                        </clipPath>
                    </defs>
                </svg>