<svg
                            width="40"
                            height="47"
                            viewBox="0 0 40 47"
                            fill="none"
                            xmlns="http://www.w3.org/2000/svg"
                        >
                            <path
                                d="M20.0704 22.991L1.17383 12.0911V34.9795L20.0471 45.8238L38.8264 34.9103V12.0911L20.0704 22.991Z"
                                fill="#29A8F0"
                            />
                            <path
                                d="M20.0471 1.17618L38.8264 12.0911L20.0471 23.006L1.17383 12.0911L20.0471 1.17618Z"
                                fill="#57BCF5"
                            />
                            <path
                                d="M20.0469 8.14896L32.9107 15.5255V31.382L20.0469 25.0431V8.14896Z"
                                fill="url(#paint0_linear_128_132)"
                            />
                            <path
                                d="M20.0469 8.13914L7.1354 15.5383V31.4275L20.0469 25.043V8.13914Z"
                                fill="url(#paint1_linear_128_132)"
                            />
                            <path
                                d="M7.13623 31.4274L20.047 25.0526L32.9109 31.3804L20.047 38.8609L7.13623 31.4274Z"
                                fill="#078DD9"
                            />
                            <g clip-path="url(#clip0_128_132)">
                                <path
                                    d="M11.1865 28.8192C10.5571 28.8192 9.98868 28.7084 9.48124 28.4869C8.97772 28.2615 8.56271 27.9411 8.23622 27.5258C7.91365 27.1065 7.7091 26.6081 7.62256 26.0306L9.29832 25.7814C9.41633 26.2719 9.66021 26.6496 10.03 26.9146C10.3998 27.1797 10.8207 27.3122 11.2927 27.3122C11.5563 27.3122 11.812 27.2706 12.0598 27.1876C12.3076 27.1045 12.5102 26.9819 12.6675 26.8197C12.8288 26.6575 12.9095 26.4578 12.9095 26.2205C12.9095 26.1335 12.8957 26.0504 12.8682 25.9713C12.8446 25.8882 12.8032 25.8111 12.7442 25.7399C12.6852 25.6687 12.6007 25.6014 12.4905 25.5382C12.3843 25.4749 12.2486 25.4175 12.0834 25.3661L9.87657 24.7134C9.71136 24.666 9.5186 24.5987 9.29832 24.5117C9.08196 24.4247 8.87151 24.3001 8.66696 24.1379C8.4624 23.9758 8.29128 23.7622 8.15361 23.4971C8.01986 23.2282 7.95299 22.89 7.95299 22.4826C7.95299 21.909 8.09657 21.4324 8.38373 21.0527C8.67089 20.673 9.05443 20.3902 9.53434 20.2042C10.0142 20.0183 10.5453 19.9274 11.1275 19.9313C11.7136 19.9392 12.2368 20.0401 12.697 20.2339C13.1573 20.4277 13.5428 20.7105 13.8535 21.0824C14.1643 21.4502 14.3885 21.9011 14.5262 22.4351L12.7914 22.7318C12.7285 22.4549 12.6125 22.2215 12.4433 22.0317C12.2742 21.8418 12.0716 21.6974 11.8356 21.5985C11.6035 21.4997 11.3596 21.4463 11.1039 21.4383C10.8521 21.4304 10.6141 21.466 10.3899 21.5451C10.1696 21.6203 9.98868 21.731 9.84707 21.8774C9.70939 22.0237 9.64055 22.1978 9.64055 22.3995C9.64055 22.5854 9.69759 22.7377 9.81167 22.8564C9.92574 22.9711 10.0693 23.064 10.2424 23.1352C10.4155 23.2064 10.5925 23.2658 10.7735 23.3132L12.2486 23.7167C12.4689 23.776 12.7128 23.8551 12.9803 23.954C13.2477 24.0489 13.5034 24.1834 13.7473 24.3575C13.9952 24.5275 14.1977 24.753 14.3551 25.0338C14.5164 25.3147 14.597 25.6707 14.597 26.1018C14.597 26.5606 14.5006 26.9621 14.3079 27.3062C14.1191 27.6464 13.8634 27.9292 13.5408 28.1547C13.2182 28.3762 12.8524 28.5423 12.4433 28.6531C12.0381 28.7638 11.6192 28.8192 11.1865 28.8192ZM15.8939 28.6412V20.0975H17.3337L20.1424 25.7695L22.951 20.0975H24.3908V28.6412H22.892V23.5387L20.4256 28.6412H19.8591L17.3927 23.5387V28.6412H15.8939ZM26.047 28.6412V20.0975H29.6346C29.7172 20.0975 29.8273 20.1014 29.965 20.1093C30.1066 20.1133 30.2325 20.1251 30.3426 20.1449C30.8501 20.224 31.2651 20.3921 31.5877 20.6492C31.9142 20.9063 32.1541 21.2307 32.3075 21.6223C32.4609 22.0099 32.5376 22.443 32.5376 22.9216C32.5376 23.4002 32.4589 23.8353 32.3016 24.2269C32.1482 24.6146 31.9083 24.9369 31.5818 25.194C31.2592 25.4511 30.8462 25.6192 30.3426 25.6983C30.2325 25.7142 30.1066 25.726 29.965 25.7339C29.8234 25.7419 29.7133 25.7458 29.6346 25.7458H27.652V28.6412H26.047ZM27.652 24.2388H29.5638C29.6464 24.2388 29.7369 24.2348 29.8352 24.2269C29.9335 24.219 30.024 24.2032 30.1066 24.1795C30.3229 24.1201 30.4902 24.0212 30.6082 23.8828C30.7262 23.7404 30.8068 23.5842 30.8501 23.4141C30.8973 23.24 30.9209 23.0759 30.9209 22.9216C30.9209 22.7674 30.8973 22.6052 30.8501 22.4351C30.8068 22.2611 30.7262 22.1048 30.6082 21.9664C30.4902 21.824 30.3229 21.7231 30.1066 21.6638C30.024 21.6401 29.9335 21.6243 29.8352 21.6163C29.7369 21.6084 29.6464 21.6045 29.5638 21.6045H27.652V24.2388Z"
                                    fill="white"
                                />
                            </g>
                            <path
                                d="M1.17379 23.3824L7.13623 26.7933L1.17379 30.2042V23.3824Z"
                                fill="#22A5EF"
                            />
                            <path
                                d="M1.17379 16.5606L7.13623 19.9715L1.17379 23.3824V16.5606Z"
                                fill="#29ABF4"
                            />
                            <path
                                d="M38.8264 23.6647L32.9109 27.0756L38.8264 30.4865V23.6647Z"
                                fill="#22A5EF"
                            />
                            <path
                                d="M7.13627 31.4274L13.0518 34.8619L7.13627 38.3904V31.4274Z"
                                fill="#29ABF4"
                            />
                            <path
                                d="M7.13627 31.4274L13.0518 34.8619L7.13627 38.3904V31.4274Z"
                                fill="#29ABF4"
                            />
                            <path
                                d="M32.9109 31.3804L26.9954 34.8148L32.9109 38.3433V31.3804Z"
                                fill="#29ABF4"
                            />
                            <path
                                d="M32.9109 31.3804L26.9954 34.8148L32.9109 38.3433V31.3804Z"
                                fill="#29ABF4"
                            />
                            <path
                                d="M38.8264 16.8428L32.9109 20.2538L38.8264 23.6647V16.8428Z"
                                fill="#29ABF4"
                            />
                            <path
                                fill-rule="evenodd"
                                clip-rule="evenodd"
                                d="M20.0469 0.00915442V0L1.17372 10.9149H1.17371L0 11.5888V35.4818L1.17371 36.1557L20.0469 47V46.9908L38.8263 36.0759L38.8263 36.0851L40 35.4112V11.5971L38.8263 10.9232L38.8263 10.9241L20.0469 0.00915442ZM38.8263 12.0911L20.0469 1.17618L1.17372 12.0911L1.17371 34.9795L20.0469 45.8238L38.8263 34.9089V12.0911Z"
                                fill="black"
                            />
                            <defs>
                                <linearGradient
                                    id="paint0_linear_128_132"
                                    x1="32.9042"
                                    y1="15.0615"
                                    x2="26.3279"
                                    y2="27.9298"
                                    gradientUnits="userSpaceOnUse"
                                >
                                    <stop stop-color="#126C9E" />
                                    <stop offset="1" stop-color="#078DD9" />
                                </linearGradient>
                                <linearGradient
                                    id="paint1_linear_128_132"
                                    x1="7.1354"
                                    y1="15.0615"
                                    x2="13.7117"
                                    y2="27.9298"
                                    gradientUnits="userSpaceOnUse"
                                >
                                    <stop stop-color="#126C9E" />
                                    <stop offset="1" stop-color="#078DD9" />
                                </linearGradient>
                                <clipPath id="clip0_128_132">
                                    <rect
                                        width="25.9624"
                                        height="10.6797"
                                        fill="white"
                                        transform="translate(7.04224 19.1481)"
                                    />
                                </clipPath>
                            </defs>
                        </svg>