<svg
                            width="24"
                            height="24"
                            viewBox="0 0 24 24"
                            fill="none"
                            xmlns="http://www.w3.org/2000/svg"
                        >
                            <mask
                                id="mask0_128_169"
                                style="mask-type: alpha"
                                maskUnits="userSpaceOnUse"
                                x="0"
                                y="0"
                                width="24"
                                height="24"
                            >
                                <rect width="24" height="24" fill="#D9D9D9" />
                            </mask>
                            <g mask="url(#mask0_128_169)">
                                <path
                                    d="M4.55008 19.4805C3.53058 19.4805 2.74975 19.114 2.20758 18.381C1.66558 17.648 1.45766 16.8 1.58383 15.837L2.60558 8.37925C2.77541 7.26058 3.28033 6.33758 4.12033 5.61025C4.9605 4.88308 5.94183 4.5195 7.06433 4.5195H16.9358C18.0583 4.5195 19.0397 4.88308 19.8798 5.61025C20.7198 6.33758 21.2247 7.26058 21.3946 8.37925L22.4163 15.837C22.5425 16.8095 22.3275 17.6598 21.7713 18.388C21.2152 19.1163 20.4453 19.4805 19.4618 19.4805C19.0568 19.4805 18.6737 19.4063 18.3126 19.2578C17.9514 19.1091 17.6269 18.8909 17.3391 18.6033L15.2156 16.4805H8.79783L6.67508 18.6033C6.38741 18.8909 6.063 19.1091 5.70183 19.2578C5.3405 19.4063 4.95658 19.4805 4.55008 19.4805ZM16.9293 12.9152C17.2127 12.9152 17.4502 12.8194 17.6418 12.6277C17.8335 12.4361 17.9293 12.1986 17.9293 11.9152C17.9293 11.6319 17.8335 11.3944 17.6418 11.2027C17.4502 11.0111 17.2127 10.9152 16.9293 10.9152C16.646 10.9152 16.4085 11.0111 16.2168 11.2027C16.0252 11.3944 15.9293 11.6319 15.9293 11.9152C15.9293 12.1986 16.0252 12.4361 16.2168 12.6277C16.4085 12.8194 16.646 12.9152 16.9293 12.9152ZM15.0708 10.0708C15.3542 10.0708 15.5917 9.97492 15.7833 9.78325C15.975 9.59158 16.0708 9.35408 16.0708 9.07075C16.0708 8.78742 15.975 8.54992 15.7833 8.35825C15.5917 8.16658 15.3542 8.07075 15.0708 8.07075C14.7875 8.07075 14.55 8.16658 14.3583 8.35825C14.1667 8.54992 14.0708 8.78742 14.0708 9.07075C14.0708 9.35408 14.1667 9.59158 14.3583 9.78325C14.55 9.97492 14.7875 10.0708 15.0708 10.0708ZM7.76433 12.887H9.26433V11.25H10.9011V9.75H9.26433V8.113H7.76433V9.75H6.11308V11.25H7.76433V12.887Z"
                                    fill="white"
                                />
                            </g>
                        </svg>